/* XPM */
static char *_a8dbae6aa354baadbabfeec43f18c10G1QWlH1mY7pOFbpv[] = {
/* columns rows colors chars-per-pixel */
"64 64 256 2 ",
"   c None",
".  c #060000",
"X  c black",
"o  c gray18",
"O  c gray81",
"+  c #020202",
"@  c black",
"#  c black",
"$  c black",
"%  c #141C06",
"&  c #0A1100",
"*  c #000600",
"=  c black",
"-  c #311F11",
";  c #2A180A",
":  c #231102",
">  c #CF8F8F",
",  c #C88484",
"<  c #C57D7D",
"1  c #BD7272",
"2  c #BA6B6B",
"3  c #B36464",
"4  c #AF5959",
"5  c #A85252",
"6  c #A14A4A",
"7  c #9D4343",
"8  c #963C3C",
"9  c #923838",
"0  c #8B3131",
"q  c #872A2A",
"w  c #802323",
"e  c #7D1F1F",
"r  c #751818",
"t  c #721414",
"y  c #6B1111",
"u  c #670A0A",
"i  c #600606",
"p  c #5C0202",
"a  c #550000",
"s  c #520000",
"d  c #4A0000",
"f  c #470000",
"g  c #400000",
"h  c #3C0000",
"j  c #350000",
"k  c #310000",
"l  c #2A0000",
"z  c #260000",
"x  c #CFBDB3",
"c  c #CFB6A8",
"v  c #CFAF9D",
"b  c #CFA892",
"n  c #CFA48B",
"m  c #CF9D80",
"M  c #CF9675",
"N  c #CF926E",
"B  c #CF8B60",
"V  c #C88459",
"C  c #C17D52",
"Z  c #BA754A",
"A  c #B36E43",
"S  c #AB673C",
"D  c #A46035",
"F  c #A15C31",
"G  c #96592E",
"H  c #8B522A",
"J  c #844E26",
"K  c #7D4A23",
"L  c #75431F",
"P  c #6B401C",
"I  c #643818",
"U  c #5C3514",
"Y  c #553111",
"T  c #4A2A0D",
"R  c #40260A",
"E  c #352306",
"W  c #2E1C02",
"Q  c #231400",
"!  c #181100",
"~  c #110A00",
"^  c #C1C1C1",
"/  c gray73",
"(  c gray70",
")  c #AFAFAF",
"_  c gray66",
"`  c gray63",
"'  c #9D9D9D",
"]  c gray59",
"[  c gray56",
"{  c #8B8B8B",
"}  c #848484",
"|  c #808080",
" . c #797979",
".. c #727272",
"X. c gray43",
"o. c #676767",
"O. c #606060",
"+. c gray36",
"@. c #555555",
"#. c #4E4E4E",
"$. c gray29",
"%. c #434343",
"&. c #3C3C3C",
"*. c gray22",
"=. c #313131",
"-. c #2A2A2A",
";. c gray15",
":. c gray12",
">. c gray11",
",. c gray8",
"<. c gray5",
"1. c gray4",
"2. c #55CF4E",
"3. c #4EC147",
"4. c #47B340",
"5. c #40A438",
"6. c #3C9631",
"7. c #35872A",
"8. c #2E7923",
"9. c #266E1C",
"0. c #236014",
"q. c #1C5211",
"w. c #14430A",
"e. c #0D3502",
"r. c #062600",
"t. c #001800",
"y. c #000A00",
"u. c black",
"i. c #96806B",
"p. c #8F7964",
"a. c #87725C",
"s. c #806B55",
"d. c #79644E",
"f. c #755C4A",
"g. c #6E5943",
"h. c #67523C",
"j. c #604A38",
"k. c #594331",
"l. c #55402E",
"z. c #4E3826",
"x. c #473523",
"c. c #402E1C",
"v. c #382618",
"b. c #352314",
"n. c #796043",
"m. c #6B5535",
"M. c #604A2E",
"N. c #554023",
"B. c #473518",
"V. c #3C2A11",
"C. c #311F0A",
"Z. c #261802",
"A. c #595C43",
"S. c #4E5238",
"D. c #474A31",
"F. c #3C432A",
"G. c #35381F",
"H. c #2A3118",
"J. c #232A11",
"K. c #1C230D",
"L. c #CFCF52",
"P. c #BDAF38",
"I. c #AB9226",
"U. c #997514",
"Y. c #875906",
"T. c #753C00",
"R. c #642600",
"E. c #521100",
"W. c gray81",
"Q. c #CFAFAF",
"!. c #CF9292",
"~. c #CF7575",
"^. c #CF5959",
"/. c #CF4040",
"(. c #CF2323",
"). c #CF0606",
"_. c #CF0000",
"`. c #C10000",
"'. c #B60000",
"]. c #AB0000",
"[. c #A10000",
"{. c #960000",
"}. c #8B0000",
"|. c #800000",
" X c #750000",
".X c #670000",
"XX c #5C0000",
"oX c #520000",
"OX c #470000",
"+X c #3C0000",
"@X c #310000",
"#X c #260000",
"$X c #BABACF",
"%X c #9D9DCF",
"&X c #8484CF",
"*X c #6B6BCF",
"=X c #5252CF",
"-X c #3535CF",
";X c #1C1CCF",
":X c #0202CF",
">X c #0000CF",
",X c #0000B6",
"<X c #0000A1",
"1X c #00008B",
"2X c #000075",
"3X c #000060",
"4X c #00004A",
"5X c #000035",
"6X c gray81",
"7X c #CFBDAF",
"8X c #CFAB92",
"9X c #CF9D75",
"0X c #CF8B59",
"qX c #CF7D3C",
"wX c #CF6B1F",
"eX c #CF5C02",
"rX c #C55200",
"tX c #BD4E00",
"yX c #B34700",
"uX c #AB4000",
"iX c #A13800",
"pX c #993100",
"aX c #8F2A00",
"sX c #872600",
"dX c gray81",
"fX c #CFCFAB",
"gX c #CFCF8B",
"hX c #CFCF6B",
"jX c #CFCF4A",
"kX c #CFCF2A",
"lX c #CFCF0A",
"zX c #CFCF00",
"xX c #802300",
"cX c #791C00",
"vX c #6E1400",
"bX c #640A00",
"nX c #311F0D",
"mX c #261402",
"MX c #1C0A00",
"NX c #140200",
"BX c #000035",
"VX c #00002A",
"CX c #00001F",
"ZX c #000014",
"AX c #00000A",
"SX c black",
"DX c black",
"FX c black",
"GX c #CF7926",
"HX c #CFBA2E",
"JX c #CF59CF",
"KX c #CF00CF",
"LX c #A400A4",
"PX c #790075",
"IX c #4E004A",
"UX c #804A4A",
/* pixels */
"E.E.T.U.Y.U.U I.kXI.Y.i.I.P.U.P P.i.U.I.I.I.Y.P.U.U.kXY.HX1X,Xl ,Xj 2XI.Y.I.P.Y.i.I.Y.Y.I.K n.i.K P.U.U.K U.s.Y.I.kXK U.U.U.R.L ",
"I. Xp i i UXu a a a f d i a i r w f a i p i f |.a E.p p |.:X2X2X1X<X:X Xt i a p p i f f e d a i f a  Xi  Xt a d w a p i e |.w Y.",
"HX7 i U.U.d t i i.w u P.U.w kXp w U.i P.s.p d P.|.p |.Y.U.aX4X:X<X1Xi Y.I.p r  XI.u e I.P.p P.r i n.i U.a.e y I.|.e u U.Y.a d n.",
"Y.r K K U.I.|.I.U.Y.|.I.Y. Xr q 5 a i kXI.u U.K i.R.s.U K T.|.p.a.|.U.K T.kXp n.I.s.p P.i.i y t t u i P.i.a P.U.M.a n.P.U.I.a I.",
"U q I.G U.Y.y d U.E.p a w 7 a |.|.d i q d 0 h U.p i I.I.I.I.i j.%X XY.P.I.m.0 d i.r i i d p {.|.|.u t f 0 i p I.i e HXU E.I.p I.",
"U.0 p s.U.q 7 7 i t H 6 8 r t 0.8. XUXf q p r w t r u I.P  X&X*XU *Xd Y.I i D i 8 p R.i 3 u i 8.e.e H i w y  XR.i |.f P.I.|.|.Y.",
"HXi a }. Xp a T.cXJ a a q UX|.w.w.[.H t i E.r vXi p i |.p |.*X+.h.%Xq e u |.i L i cXR.w t w |.8.w.t u y y vX6 p p u i 8 p r UXI.",
"s.u 0 U a 0 D d PXPXE.t w r i }. Xe r i p E.LXPXE. Xp.y Y.i k.X.R +.d i.p i bXd PXPXf 8 a i }.|.e p E.a p E.PXLXR.0  Xi P.|.p I.",
"i.i n.P.I.}.vXi LXi PX|.q R. X8.w.0 i p pXLXLXPXPXJ |.I.R.U.a o.*Xi U.Y.kXu r KXLXPXLXi y p e q.0.|.u a sXPXPXPXLXbXL n.I.kXi m.",
"i.i 5 HXa t a PXKXPXPXd w p {.7.6.t e p f LXLXPXLXd a |.U. Xp +.k.a  XI.f u r LXLXi KXt q i i 7.8.q E.u E.LXi LXLXi i p U.i i U.",
"P.p i i p q R.R.PXLXp e s.w  X|.{.t u 8 a bXLXLXR.R.p p u |. X%Xj.t i i w y cXd KXPXa bXr  Xt |.{.|.w  Xf r PXLXR.i t q 8 a i K ",
"m.}.i.s.r u u R.cXaXd u a q  X6.9.t t r i f a p f 0 u  XP.s.p j.&Xp kXi.|.w y a bXT.|.w E.u 0 q.6.t y y s.i R.R.p u r u kXY.e P ",
"kXp n.U.a d p R.i R.R.UX8 UXw 9.w.|.R.d i H y R.p 8 y |.I.I.t k.*Xi s.kXa u R.y u  Xe e i i i J.w.e |.t q i E.a t u t i I.P.i Y.",
"I.i p r t 6 |.E.w 8 i u u 0 p  Xt a E.G d t r q i i e a i p p o.%Xi a i u a 0 d 8 u 8 d r u i u p i r a i u e y u |.p UXp i i i.",
"U.a P.w }.e  Xi e i i p i R.f zXU.i |.w a |. X X|.w i w u P.i %Xj.w P.u t u i }.i {.e t u i IXzXzXa |.u  X|.pX Xi  Xt {. XP.a M.",
"n. Xu i 8.6.{.9.0.i q.8.|.d zXlXzXzX Xw.9.|.8.8.{.6.9. Xa u k.&X*X*X Xi 7.0.|.6.8.|.0.q.e d zXU.HXlXp q.7. X9.4.pXK.9. XE.p i P.",
"Y.p t }.9.8.i 9.8. XJ.8.i i U.HXU.U.w 0.5.(.q.8.|.6.w.q p i *Xj.*Xj.a |.6.q.|.8.8.|.8.8.|.i U.P.U.U.i 9.w.|.w.w.0 9.5.[.i i i I.",
"U i P.a w |.e |.t |.}.i 5 u a I.zXd i e p e q i  Xw |. Xi kXp *XR i I.p i i e i i  X Xi r u i HXHXt e w }.7 |.w  X}.i w a I.u I.",
"s.t p t E.q u 0 q u R.q d P |.i i u e R.w }.a  Xw y d  X Xw |.%X&Xa t a R.i E.r i r r i p i p a p p d a i a i p u r p u d |.p HX",
"Y.a i.P. XL y e p  Xu R.t 6  Xq.8.i p t a E.p q p e u u m.I.i k.+.i P.I.d 0 i t d p y q u  Xq 9.9.}.q 6 i r e r q E.8 q Y.I.i U ",
"I. XU.m.p i R.G D R.R.8 a w |.q.9.e w i E.6 d U r q p i I.U.f k.*Xa I.U.p R.a t vXa p r p u w q.5.y i  Xi 0 8 i i  Xp w Y.P.|.K ",
"i.i p |.t 6 T.a PXp f i i R.u }.e |.w q E.r PXLXbXi UXu a a |.%Xk.i a r a a r a PXLXR.E.i u i  X{.|.E.y r a LXPXa P p t u a p i.",
"I.i f a.t  XvXLXa KXPXR.e e w e.9. Xp w bXLXPXPXLXa y p Y.a i c.*Xi d I.E.i vXLXPXPXLXE.u i i 0.9.i w t E.LXLXPXLXr a i HXi i I.",
"U.d U.kXI.r bXPXLXLXLXR.E.q i 6.6.}.8 w t LXLXPXKXbXp kXI.P.i *Xj.|.I.K T. XbXPXLXLXLXf a e y q.0.t UXu R.LXLXLXPXvX|.P.P.P.d n.",
"P.a q P.a r q bXLXPXJ R.q q |.pX{.p u p bXf KXKXR.i i d I.p %X%XU @.a kXf a p f PXLXE.R.q i t |.|. XE.p U i PXLXd y i d HX Xd K ",
"s.e r d i E.a vXi R.< u t a p 7.9.t w u UX XbXT.r w e u i d *XR.X.*Xa d a r t 8 a a bXi p E.i 9.9.|.u t q 8 R  XT.y d i p t t I.",
"P.h  XP.i.w |. Xf.q p p r u }.7.7.{.p i i r p t p a p I.U.p &X&XR.&X|.I.Y.f u i a i r u r e i 0.5.t r a a 7 u d i i  XI.P.d i m.",
"kXd U.s.Y.kXi i P.i d i }.p L [.u  Xq e i i d kXa p U.s.L I.i *X*Xa U.I.U.U.p |.I.a i i t d  X}. Xi u p y a p I.i h HXU.s.kX|.kX",
"I.i I.U.s.kXu n.i.I.e HXU.q p |.u u i P.kX|.P.I.P.u I.L G s.j a i a Y.K I.K t P.U.P.r I.I.d |.i  X Xi I.kXd i.P.kX|.Y.I.R.P.|.U.",
"<X:X}.Y.U.p |.i U.e i I.HX XP.e u kXa HXI.p e I.d  Xa kXM.IXeXeXaXiXi I.K p p p U.f a Y.P.|.P.|.i kXi i.s.w a I.a d d U.HXi :X:X",
"1Xz 1X|.bX&Xk.*X|.i i p |.f p v.&X|.d  X|.p i i &X&X*Xa i GXeXuXpXeXaXd p %Xo.&Xp i |.i i d i %X&Xa i p i t  Xi k.%X+.i i 2X,X1X",
":X,X2XUX*Xk.%Xf.&X&Xo.+.^ k.%X&X*Xj.&X%X%Xo.%X%Xj.*Xo.$Xf aXr rXtXtXaXa &XU j.U o.&X+.j.&X*XU +.U +.+.o.o.x.&Xk.&XE.%X+.} 2Xj :X",
"<X<X,Xa.+.*Xf.*X*Xo.%X&Xo.o.%X+.j.+.%X+.%Xc.*Xk.*X&X&X*Xd wXaXaXaXuXwXt *X&Xf.%Xk.k.&Xj.) &X*X%X%Xo.&X&X&Xo.*X*Xo.*XU o.%X,X<X,X",
"j z :X}. Xj.*X*Xp  X X|.a a  X&X&X|.|.r p i  Xp ) k.*Xa d tXiXpXiXaXtXf |.&Xo.*Xf |. Xi i i i &Xc.p |.|.a p a |.&Xj.=Xf {.2Xj ,X",
"2X:X|.U.U i  Xt I.f d P.P.u U.T.i I.d HXHXa i T.p |.p Y.P.IXpXuXuXwXa n.m.p i d HXa a n.P.|.I.e  XI.d n.kXi i HXd i i P.U. X<X:X",
"P.i T.G K I.i P.I.I.i P.U.i d |.|.q f HXI.i kXs.I.a U.P.a I.f e r a n.L i.i.p P.P.U.p I.n.a t i e a i kXP.a I.n.kX Xs.Y.I.U.i I.",
"s.i Y.I.U.U i }.i.i a t d r i w p i i t w d i HXd i I.G K P.p +.z.|.Y.Y.I I.a |.i.t 6 i |.i u |.[. Xu i d  Xt P. Xd P.s.Y.U.i K ",
"U.f i P kX|.t i d p I u r i w w.8.|.p d r i d 4 p r f U.HXa =X*XU &Xp I.i.a w a |. XG  Xi }.t 5.0.p i UX Xr i y i t a P.kXi t I.",
"P.i p d i p q vXbXq t i R.p i q.9.i q r i i R.i |.t i a i a &Xj.k.&Xd d i a r R.U d a i i t  Xq.6.}.H a p 0 bXi r  Xp e a  X}.m.",
"U.d  XU.i i |.G PXLXD R.8 u }.|.{.{.d i D i PXLXt t u p P.i k.X.U *Xd HXi i sXE.LXKXvXq  XR.i |.{.i |.u bXK LXPXa vXe a P.h p Y.",
"I.p kXU.P.u p PXLXPXPXi q w  Xq.4.i y p bXPXLXPXp a u n.HXT  Xj.*Xa Y.P n.i |.LXPXPXIXi a q }.q.9.i p u t LXPXPXLXp [.I.s.kXi s.",
"U.t  Xs.a 7 a PXPXPXPXa.r p p 4.q. Xw u d LXPXPXPXw  Xd kX|.p %X&Xi t P.p y f PXPXPXLX|.i w |.4.6. Xu d t LXPXPXPXa E.a U |.a m.",
"s.i f d a r p R.LXPXa vX Xr  X X}.e R.UXpXE.LXPXp a u p e d d o.k.i i i i r R.bXLXPXa a p u |.i [.|.i r w R LXPXi a t d r t i K ",
"P.f M.kXq  X|.8 f bXw e e |.e 9.q.i y a R.a R.R.p i d i I.kXd +.k.a i.I. Xi p E.8 a a R.u w |.6.6. X8 p r i sXt t w i u I.U.p I.",
"I.t kXP.r i i i 0 p f R.d 0 i 8.5.|.d y y d i 0 r u a  Xs.kXp %X*Xd U s.u i R.p w 0 i |.|.UX|.6.H.|.i i  XE.q p r u u i I.I.a Y.",
"Y.f f i  Xp a R.R.u y t w p u i d  Xq  XE.w 0 p a R.7 d |.a i *Xo.i d t p R.t a i E.u u t p a i i a t p a q u |.a |.u  Xp  Xi I ",
"kXi I. Xt q [.u |.e e t i w i zXY.f i  Xp t  X|.|.[.i |.q HX|.&Xk.f i.i |.|.e u |.t |.i u i p lXHX|.y i e i  X|. Xi i |.i i.f HX",
"s.a w  Xq.q.|.7.9.[.q.7.|.p U I.I.zXp 7.q.{.9.9.e 8.8. Xr i &Xk.k.j.E.}.5.6.i q.q.i 8.8.7 p lXY.I.U.a q.w.[.5.5.|.9.0.y t  Xi E.",
"I.p a w 6.8.w 8.8.i q.q.0 p lXL zXP.i J.w.}.7.5.[.w.9.a u d k.R.*Xj.p i 9.J.|.8.q.e 9.8.}.d I.Y.U.zXt q.q.}.9.9.|.3.0.i E.i d L ",
"U.i I.i i i  X|. Xw i |.t d p m.zXi u }.t p t t i i t t i I.a %Xj.d I.|.|.i i t i q t  X Xi a HXlXp i  Xu i t (. Xi t }.}.p.i U.",
"I.i i t e 0 L i u E.y u L i e d t i y i u p 0 a p r u p  Xp a o.o.p  X|.f t t u  XR.p G E.r  Xi  X|.p r p p a e  Xi p u i u i U.",
"K i i.U.d R.u r a r t i r r }.q.q.i R.i u p w r i w p p P.s.u +.o.i s.P.r |.d y E.y w d p r  X8.6.i d r 0 p R.a  XR.i i n.I p I.",
"U.p i.kXf 0 R.p p bXR.w E.p i 9.6.}.i R.p t a sXi |.r e P.I |.k.j.i M.P.p p u i R.r a r t u t 9.w. Xu  X8 p vXE.bXu u 7 P.M.i P.",
"I.h i a p L f I PXPXE.0 p p R. X|.p  Xq R.vXLXPXT i u a i u p *X&Xq i  X Xu t a LXLXE.pXi |.i }.w i u a r a PXLXa bXu i i i a I.",
"T.y p s.a w q PXPXPXPXp u r |.q.6.i a i d PXPXPXKXa a u R a |.&XY i a P.f p H PXLXPXi t r i i 8.e.t u u E.LXLXLXPXcXp a jXf  XU.",
"T.w P U.P.t R.LXKXPXPXU a p p 9.q.e q r d LXPXPXLXE.8 I.Y.I.a *X*Xi s.s.I.a a PXLXPXPXbXp 0 |.8.q.p i t bXLXp LXPXa d U.kXI.p U.",
"I.p a P.a a 7 E.LXPXbX XL i 6 i (.t e a i bXPXp bXp i r i.i k.U *X=Xe kXp |. XU LXLXT.i  Xa i |.i e u u vXf PXPXT.d u t M.i h P.",
"I.f i u p p p L i r r y e q  Xw.7. Xy i 0 E.E.p T.p d a f  Xo.R.*X*Xa t t i E.E.a a U I L q w 9.6.p |.i i i |. Xa u i i p i a P.",
"P.p p P.U.t 2 i  Xd y w w y u 6.w.t t E.i a r u a t i P.P.p *X&X*Xj. Xm.i. Xq u q i w |.p p i 0.q.p i w i t t a p p E.n.kXd i kX",
"T i I.U.U Y.a i s.t q a y  Xi 0  Xq p p  Xp i U.a 0 M.T.T.T.i +.&Xd U.L H I i a a.i p p 8 i r i i |.E.t a f  Xs.i a P.P.U.P.i I.",
"s.t U.K G K p s.I.M.t kXU.w E.p y E.y i.P.a U.i.s.p P I.U U.|.d.s.|.U.K G U i U.U.U.u i.kXi a i u q i P.P. XI.U.U.|.s.T.i.s.p i.",
"T u i kXK r a p U.|.a i.n.t I.y p n.a s.Y.i q U.t i p I.U.}.<X:Xz :XcXU.s.y u  XP.p i P.Y. Xp.i w U.p U.I.a u U.i i y Y.n.u i i.",
"K a  Xa r i i |. Xi p i p a i  Xi i a 0 d d a d |.i a i |.:Xz ,Xl :X1X Xj |.u p i i p i a a i a i a a p i i i a i p p d  Xp i i.",
"U.Y.U.U.K T P.s.Y.P U.I.Y.U s.Y.K i.U.Y.R.s.U.n.i.U.E.s.H 4Xl h ,X2X1XkXI.i.P L I.i.Y.U.K U.R U.K K P i.s.I.U.Y.K U.I.P.U.n.I.I."
};
