/* XPM */
static char *e7cc30ee63e04ca2b9be0c4f4d73925fk53nGaiCLrQunbF7[] = {
/* columns rows colors chars-per-pixel */
"134 128 38 1 ",
"  c #1F0000",
". c gray12",
"X c #2B0000",
"o c #370000",
"O c #373700",
"+ c #232323",
"@ c #2F2F2F",
"# c gray20",
"$ c #373737",
"% c gray23",
"& c #430000",
"* c #4B0000",
"= c #570000",
"- c #630000",
"; c #770000",
": c #434300",
"> c #4F4F00",
", c #5F5F00",
"< c #6B6B00",
"1 c #777700",
"2 c #434343",
"3 c #4B4B4B",
"4 c gray34",
"5 c #5B5B5B",
"6 c #676767",
"7 c gray45",
"8 c gray50",
"9 c #830000",
"0 c #8F0000",
"q c #9B0000",
"w c #9F0000",
"e c #878700",
"r c #939300",
"t c #9F9F00",
"y c #AFAF00",
"u c #BBBB00",
"i c #C7C700",
"p c yellow",
/* pixels */
"@@@@@@@@@@@@@@@@@@@@@@@@@@@@@@@@@@@@@@@@@@@@@@@@@@@@@@@@@@@@@@@@@@@@@@@@@@@@@@@@@@@@@@@@@@@@@@@@@@@@@@@@@@@@@@@@@@@@@@@@@@@@@@@%@@@@@@",
"%%%%%%%%%%%%%%%%%%%%%%%%%%%%%%%%%%%%%%%%%%%%%%%%%%%%%%%%%%%%%%%%%%%%%%%%%%%%%%%%%%%%%%%%%%%%%%%%%%%%%%@@@@@@%%%%%%%%%%%%%%%%%%%%%%%%%%",
"44%%443333333333443333333333334433%%33333333333333444444444444333333333333332223333333333333333332222%%$$$$%%33344443333333333%%44%%44",
"44%%443333333333443333333333334433%%333333333333334444444444443333333333333333334444444444444444333333%%@@%%334444444333333333%%44%%44",
"-*=&-&--*-*-**-*=-&-&-&=-333334439-*=-*-*-*-**-*=&-&--=*-**-&==-==*-*====%33333439-*=-*-&&&&&&&&&&*&*&*&*&&&&&*&&*&***=&-*-*=&-&-*=&-&",
";-9--9--9-99--;-9--9-;-9-*+33346qq9;;9-99-99--;-9--9--9-9;-----9=9-9-9--&X%%3343qq9;;9-99-99--;-9--9--9-9;;-9------99-9-;-;-9--9;-9--9",
"-&-o-*---=--=&-&--o-*o==&o+@3346q--==-&--=--=&-&-o-*-----=&-===-&-&--=*-&X@%344%q--==-&--=--=&-&-o-*-----=-&==&-===--&-o-&-&-o-*-&uu-*",
"=&=o=o-==-=-&&=&=-=-o-o-oX+@3346q9-&-=&-=-=-&&=&=o=o-=-=-&&-o*-=&-=-=-*-&X@%334%q9-&-=&-=-=-&&=&=o=o-=-=-&=o-=&-o*-==&=o=&=&=&=&=upyro",
"&=-=o-==&-&-=&&=-=o-&o=*oX+@334699=&-&=*&-&-=&&=-=o-==-&-=-==o=-X-o=&==*&X@%334399=&-&=*&-&-=&&=-=o-==-&-==&-o-==o=-&=*=&=&=-&&-1iiy1:",
"=&-o-*--==--=-=&--==o=o-oX+@346699-=-=&-==--=-=&-o-*--=--=&-o*-o--=---*=&X@%344399-=-=&-==--=-=&-o-*--=--=-o==&-o*-o-&*o=&=&*&&*1yut1O",
"-&=o-o--&-&-&&-&=-o-o-o=oX+@34669--&=-&-&-&-&&-&=o-o--=&-&&-o*=-==&-&=*-&X@%34439--&=-&-&-&-&&-&=o-o--=&-&-o-o&-o*=-&&==-&-&=&*&,1ee<O",
"=&-o=-==-=--=&=&-=o-o=o-oX+@34669--==-&--=--=&=&-o=-==-=-=&*=o&-X-*-=-*-&X@%34439--==-&--=--=&=&-o=-==-=-==&-=&*=o&--&&==&=&*o=-,>,,>:",
"&-&=o-o=-=--=-&-&o-o=o=&oX+@34669--==-&--=--=-&-&=o-o=-=-&&=o*-=&-=-=-*-&X@%34439--==-&--=--=-&-&=o-o=-=-&=o-=&=o*-=--&=*=&*=X&- >:O> ",
"&=&-o=--=-=-&=&=&*=o=*=&oX+@34669--&-=&-=-=-&=&=&-o=--=&-=-*=o=-X-o=&==*&X@%34639--&-=&-=-=-&=&=&-o=--=&-==&-o-*=o=-==&=*=&==&&=  ,, X",
"=-&-==o=&-&-===-&&=-X-o=oX+@23469-=&-&=*&-&-===-&-==o==--=&=o*-o--=---*=&X@%34639-=&-&=*&-&-===-&-==o==--=-o==&=o*-o&-&-*-&*=&&=&X  &&",
"o=-&-o=&==--=-o=-&-o=-=*oX+@234699-=-=&-==--=-o=-&-o=&-&-&&-o*=-==&-&=*-&X@%346399-=-=&-==--=-o=-&-o=&-&-&-o-o&-o*=--=&-*-=-=X&=o&&&&o",
"*-&&-o==&-&-&-*-&&=-==&*oX+@224699-&=-&-&-&-&-*-&&-o==-=-=&*=o&-X-*-=-*-&X@%346399-&=-&-&-&-&-*-&&-o==-=-==*-=&*=o&-&-&-*-&*=X&=*-&&-o",
"=--&==o&=-=-===--o&*X* XoX+@%24699-&-&=*=-=-===--&==o&--**--=&--**--&&--&X@%346399-&-&=*=-=-===--&==o&--**--*&--=&--=-&-*-&&=X&==--&==",
"&&&&&&&&&&&&&&&&* o X o  X+@%233-*&&&&&&&&&&&&&&&&&&&&&&&&&&&&&&&&&&&&&&&X@%3463-*&&&&&&&&&&&&&&&&&&&&&&&&&&&&&&&&&&&* XXXX  XXX&&&&&&",
"XXXXXXXX&&&&&&&&& oX&ooX ++@%233%&XXXXXXXXXXXXXXXXXXXXXXXXXXXXXXXXXXXXXXX+@%3463%&XXXXXXXXXXXXXXXXXXXXXXXXXXXXXXXXXXXoXXXoXoXXXoXXXXXX",
"++++++++++++++++++++..++++@@%234333%%@@+++++++++++++++++++++++++++++++++@@@%3473%++++++++++++++++++++++++++++++++++++++++++++++@++++++",
"$$$$$$$$$$$$$$$$$$$$@@@@@@$$%23467888764%%$$@@@@@@@@@$%%$$$@@@@@@$%%%%%%%%%%46743%%$$$$$$$$$%%%%%%%%%$$$$$$$@@@@@@@$$%%$$$$$$@@@$$$$++",
"432%%%%%%%22222222%$$$$$$$$%222246777643222223%%%%%%3333333%%%%%%222223333346686443322%%%2345565443333333322%@@@@%%%344333334444432%%+",
"44%%%%%%%%33333333%%%%%%%%%%23%%336764333333333%%%%334333333%%%%33333333334668876644333%34567887654444333322%@@@%3%346643333444444%%%+",
"-&-&-&==&=--*=&-*-*=&-&-&-&-&=-%33676339-*=-*-*-*-**-*=&-&-&-&;----&==--*=&-&-&-&-&=--*=&-*-*=&-&-&-&-&=-%332%@@39-*=-*-*-*-**-*-&-&-&",
"--9-;-9--9;;-9-;-;-9--9--9-;-9-*334763qq9;;9-99-99--;-9--9--9---;;;-9-*;99--9--9-;-9;;-9-;-;-9--9--9-;-9-*3322%@qq9;;9-99-99--;---9-;-",
"-o-*o&=*==*-&-o-&-&-o-*-o-*o==&o%24664q--==-&--=--=&-&-o-*-o-***;*;==**-&-o-*-o-*o==*-&-o-&-&-o&*-o-*o==&o%%33%@q--==-&--=--=&-&-o-*o&",
"-=-o-o-*o-X-&=o=&=&=&=&-=-o-o-oX+%3654q9-&-=&-=-=-&&=&=o=o-=-o**-o-o-*;=&-o=o-=-o-o-X-&=o=&=&=&=&-=-o=o-oX%%33%@q9-&-=&-=-=-&&=&-=-o-o",
"=o-&o&&*==&==*=&=&=-&&-=o-&o=*oX+#365399=&-&=*&-&-=&&=-=o-=o-&**-&-=***==-=o-=o-&o==&==*=&=&=-&&-=o-&==*oX+%33%@99=&-&=*&-&-=&&==o-&o&",
"-==o=o-=o-o=&*o=&=&*&&*-==o=o-oX+#255399-=-=&-==--=-=&-o-*-==o**=&=o-=*=&-o-*-==o=o-o=&*o=&=&*o=&-==o=o-oX+%33%%99-=-=&-==--=-=&-==o=o",
"-o-o-o=*o=o-&==-&-&=&*&-o-o-o=oX+#25539--&=-&-&-&-&&-&=o-o-o-o*o-o-o=**-&=o-o-o-o-o=o-&==-&-&=o&&-o-o-o=oX+@22%%9--&=-&-&-&-&&-&-o-o-o",
"=o=o=o-*o-o=&&==&=&*o=-=o-o=o-oX+#25439--==-&--=--=&=&-o=-=o-o=o-o=*-**=&-o=&=o-o=o-o=&&==&=&*o&&=o=o-o-oX+@243%9--==-&--=--=&=&=o=o=o",
"o&=o-=&===o=-&=*=&*=X&-o-o=o=&oX+#25439--==-&--=--=-&-&=o-o-o=o-o=o**==&*&=o*=&=o===o=-&=*=&o=o=&&&=o-=&oX+@%4339--==-&--=--=-&-o&=o-=",
"-==o*=&-==o==&=*=&==&&=*=o=*=&oX+#24439--&-=&-=-=-&=&=&-o=-=o=-=o=****=&*&*o&-&=o*==o==&=*=&o===&=X=o*==oX+@%4339--&-=&-=-=-&=&=-==o*=",
"o==X-o=&o=X=-&=*-&*=&&=&=-X-o=oX+#244%9-=&-&=*&-&-===-&-==o=-Xo=**-o=*==*&*=&=&-X-o=X=-&=*-&o=o&X-X=o-o=oX+@%4439-=&-&=*&-&-===-o==X-o",
"=-==-&--=-o==&=*-=-=&&=&-o=-=*oX+#254%99-=-=&-==--=-o=-&-o=-o==-*=-=-*-o*-&-&=&o=-=-o==&=*-=o=o&X-&=o-o*oX+@%44399-=-=&-==--=-o==-==-&",
"=&-&=&-&&-*=-&=*-&*==&=&=-==&*oX+#255%99-&=-&-&-&-&-*-&&-o==-===-==&-*=***&-&=&-==&-*=-&=*-&o=X&X-&=o=&=oX+@246499-&=-&-&-&-&-*-=&-&=&",
"o&-&-&-=*-*=-&=*-&&==&=o&*X* XoX+#344%9--&-&=*=-=-===--&==o&-X-&-*-*-=-=&&&-o-&-X-*-*=-&=*-&&=X&X-&=X= =oX+@246499-&-&=*=-=-==*-o&-&-&",
"&&&&&&&&o*Xo* XXXX  XXX o X o  X+%344%-*&&&&&&&&&&&&&&****======*****&&&&&X X o*X*o*Xo* XXXX  XXX o X o  X+@3464-*=&=&*&=*&=&=&&&&&&&&",
"XXXXXXXXoXoooXXXoXoXXXo oX&ooX +%%334%+&&&&&&&&&&&&&&&&&&&ooooXoXoXoXoXooXXXoXoXoXoXoooXXXoXoXXXo oX&ooX ++@3464%-&&XX&XXXXXX&XXXXXXXX",
"@@@@@@++@@@@@@++++++@@@@@@+++++@%%3463%+++++++++++++++++++++++++++++++++++++++++++++++++++++++++++++++++++@%36643%@+++++++++++++@@@@++",
"@$$$$$@@$$$$$$@@@@@@$$$$$$@@@@$@%%346433%%%$$$$$$$$$$$$$$$$%%%%%%%$$$$$$@@@@@@@@@@$$$$$$$$@@@@@@$$$$$$$$$@%3467633%%%@@%@%%$%3%@@$$$++",
"43332%$$$%2232%%22%%2222%$$$$$$%22467432333322%%22%%22%%246776644433443322%@@@%%222233334422%%%%223333334433678764443222443333334333%+",
"444433%%%%3344%%44%%3333%%%%%%%%34677643333322%%22%%22%%2346764343%%344322%%%%%%222233334422%%%%223333334436778876444322443333334444%+",
"4449-*=-*-*-*-**-*=&-&-&-&-&-&==&=--*=&-*-*=&-&-&-&-&=-333466449-*=-*-*-*-**-*=&-&-&-&;&==--*=&-&-&-&-&=--*=&-*-*=&-&-&-&-&=-%334449-*",
"44qq9;;9-99-99--;-9--9-9--9-;-9--9;;-9-;-;-9--9--9-;-9-*334463qq9;;9-99-99--;-9--9--9---9-*;99--9--9-;--;;-9-;-;-9--9--9-;-9-*%344qq9;",
"44q--==-&--=--=&-&-o-*-*-o-*o&=*==*-&-o-&-&-o-*-o-*o==&o%%3344q--==-&--=--=&-&-o-*-o-**==**-&9o-*-;-&-&=*-&-o-&-&-o-*-o-*o==&o@%44q--=",
"44q9-&-=&-=-=-&&=&=o=o-o-=-o-o-*o-X-&=o=&=&=&=&-=-o-o-oX+%3344q9-&-=&-=-=-&&=&=o=o-=-o*o-*;=&-o=o-=-&-o-X-&=o=&=&=&=&-=-o-o-oX@@44q9-&",
"%%99=&-&=*&-&-=&&=-=o-=-=o-&o&&*==&==*=&=&=-&&-=o-&o=*oX+@335399=&-&=*&-&-=&&=-=o-=o-&*=***==-=o-=o---o=&==*=&=&=-&&-=o-&o=*oX+@%%99=&",
"%%99-=-=&-==--=-=&-o-*-*-==o=o-=o-o=&*o=&=&*&&*-==o=o-oX+@335399-=-=&-==--=-=&-o-*-==o*o-=*=&-o-*-==o=o-o=&*o=&=&*&&*-==o=o-oX+@%%99-=",
"339--&=-&-&-&-&&-&=o-o-o-o-o-o=*o=o-&==-&-&=&*&-o-o-o=oX+@34639--&=-&-&-&-&&-&=o-o-o-o*o=**-&=o-o-o-o-o=o-&==-&-&=&*&-o-o-o=oX+@339--&",
"339--==-&--=--=&=&-o=-=-=o=o=o-*o-o=&&==&=&*o=-=o-o=o-oX+@34639--==-&--=--=&=&-o=-=o-o=*-**=&-o=&=o-o=o-o=&&==&=&*o=-=o-o=o-oX+@339--=",
"339--==-&--=--=-&-&=o-o-o&=o-=&===o=-&=*=&*=X&-o-o=o=&oX+@34539--==-&--=--=-&-&=o-o-o=o**==&*&=o*=&=o===o=-&=*=&*=X&-o-o=o=&oX+@339--=",
"339--&-=&-=-=-&=&=&-o=-=-==o*=&-==o==&=*=&==&&=*=o=*=&oX+@34539--&-=&-=-=-&=&=&-o=-=o=-***=&*&*o&-&=o*==o==&=*=&==&&=*=o=*=&oX+@339--&",
"449-=&-&=*&-&-===-&-==o=o==X-o=&o=X=-&=*-&*=&&=&=-X-o=oX+@334%9-=&-&=*&-&-===-&-==o=-Xoo=*==*&*=&=&-X-o=X=-&-*-&*=&&=&=-X-o=oX+@449-=&",
"4499-=-=&-==--=-o=-&-o=o=-==-&--=-o==&=*-=-=&&=&-o=-=*oX+@%35%99-=-=&-==--=-o=-&-o=-o===-*-o*-&-&=&o=-=-o==&-*-=-=X&=&-o=-=*oX+@4499-=",
"3399-&=-&-&-&-&-*-&&-o=o=&-&=&-&&-*=-&=*-&*==&=&=-==&*oX+@%35%99-&=-&-&-&-&-*-&&-o==-==&-*=***&-&=&-==&-*=-&-*-&*=X&=&=-==&*oX+@3399-&",
"3399-&-&=*=-=-===--&==o=o&-&-&-=*-*=-&=*-&&==&=o&*X* XoX+@%35%9--&-&=*=-=-===--&==o&-X-*-=-=&&&-o-&-X-*-*=-&-*-&&=X&=o&*X* XoX+@3399-&",
"33-*&&&&&&&&&&&&&&&&&&&&&&&&&&&&o*Xo* XXXX  XXX o X o  X+@%33%-*&&&&&============&&&&& o&X&oo&X X o*X*o*Xo* XXXX  XXX o X o  X+@33-*&&",
"33%&&&&&&&&&&&&&&&&&&&oXXXXXXXXXoXoooXXXoXoXXXo oX&ooX ++@%33%@&&&&&&&&&&&&&&&&&&&ooooXoXoXooXXXoXoXoXoXoooXXXoXoXXXo oX&ooX ++@33%&&&",
"333@+++++++++++++++++++++++++++++++++++++++++++++++++++++@%333@@@++++++++++++++++++++++++++++++++++++++++++++++++++++++++++++++@333@++",
"3333%@@@@@@@@@@@@@@@@@@@@@@@@@@@@@@$$$$$%%%%%$$$$$$$$$@@@@24433%@@@@@@@@@@@@@@@$$$$$$$$%++@@%%%%%%@@++++++@@@@@@@@++@@@@@@@@@@@@3333%+",
"44444322222%%%%%%%%%346677764444333333222234432%33%343%%%34664333333433%443344344678764322334444333322%%22333%%343%%34333333344444444+",
"44444444443333%%33%%%3466664666644444444346776444434643%34677643333333%%343344334467643322334664333322%%2233%%%343%%34333333344444444+",
"--*=&-*-*=&-&-&-&-&=-%34664349-*=-*-*-*-**-*=&-&-&-&-&==&=--*=&-*-*=&-&-&-&-&=-334476439;-----===-**-*=&-&-&-&-&-==-=*-*-&-&*-&=--*=&-",
";;-9-;-;-9--9--9-;-9-*%34633qq9;;9-99-99--;-9--9--9-;-9--9;;-9-;-;-9--9--9-;-9-*334644qq9;;9999-99--;-9--9--9-;-9-9-9-9;;-9-----;;-9-;",
"*-&-o-&-&-o-*-o-*o==&o@3453%q--==-&--=--=&-&-o-*-o-*o&=*==*-&-o-&-&-o-*-o-*o==&o%%3644q99;;----=--=&-&-o-*-o-*o&-==----=-&==&-==*-&-o-",
"X-&=o=&=&=&=&-=-o-o-oX@%453%q9-&-=&-=-=-&&=&=o=o-=-o-o-*o-X-&=&=&=&=&=&-=-o-o-oX+%3643q99--=--=-=-&&=*=o=o-=-o-o=*-=-=-&=o-=&-o*X-&=o=",
"&==*=&=&=-&&-=o-&o=*oX@%453%99=&-&=*&-&-=&&=-=o-=o-&o&&*==&==*=**&=-&&-=o-&o=*oX+%3443999--==*&-&-=&&*-=o-=o-&o&-*-=-&-==&-o-==o&==*=&",
"o=&*o=&=&*&&*-==o=o-oX@%453%99-=-=&-==--=-=&-o-*-==o=o-=o-o=&*=-*=&*&&*-==o=o-oX+%344399;=-=--==--=*&*-o-*-==o=o=-=-=--=-o==&-o*o=&*o=",
"o-&==-&-&=&*&-o-o-o=oX@%343%9--&=-&-&-&-&&-&=o-o-o-o-o=*o=o-&===&-&=&*&-o-o-o=oX+%34430;--=-=-&-&-&&*&=o-o-o-o-o-*=-=&-&-o-o&-o*o-&==-",
"o=&&==&=&*o=-=o-o=o-oX@%343%9--==-&--=--=&=&-o=-=o=o=o-*o-o=&&--&=&*o=-=o-o=o-oX+%3443q;--=-=;-=-;=&*&-o=-=o=o=o-*-=-=-==&-=&*=oo=&&==",
"o=-&=*=&*=X&-o-o=o=&oX@%343%9--==-&--=--=-&-&=o-o&=o-=&===o=-&--=&*=X&-o-o=o=&oX+%34430--==-&9-=-;=-&*&=o-o&=o-=*-*=-=-&=o-=&=o*o=-&=*",
"o==&=*=&==&&=*=o=*=&oX@%343%9--&-=&-=-=-&=&=&-o=-==o*=&-==o==&=-=&==&&=*=o=*=&oX+%34439--&-==;=-=-&=&*&-o=-==o*=*-=-=&-==&-o-*=oo==&=*",
"X=-&=*-&*=&&=&=-X-o=oX@%343%9-=&-&=*&-&-===-&-==o==X-o=&o=X=-&=*-&*=&&=&=-X-o=oX+%34439-=&-&=*&-&-===*&-==o==X-o==*==--=-o==&=o*X=-&=*",
"o==&=*-=-=&&=&-o=-=*oX@%343%9;-=-=&-==--=-o=-&-o=-==-&--=-o==&=*-=-=&&=&-o=-=*oX+%24439;-=-=&-==--=-o*-&-o=-==-&-*=&-&-&-o-o&-o*o==&=*",
"*=-&=*-&*==&=&=-==&*oX@%343%9--&=-&-&-&-&-*-&&-o=&-&=&-&&-*=-&=*-&*==&=&=-==&*oX+@24439;--=-&-&-&-&-**&&-o=&-&=&=*-=-=-==*-=&*=o*=-&=*",
"*=-&=*-&&==&=o&*X* XoX@%343%9*-&-&=*=-=-===--&==o&-&-&-=*-*=-&=*-&&==&=o&*X* XoX+@2443-9----=*=-=-===--&==o&-&-&-*-&--**--*&--=&*=-&=*",
"Xo* XXXX  XXX o X o  X@%343%-*&&&&&&&&&&&&&&&&&&&&&&&&&&o*Xo* XXXX  XXX o X o  X+@2443-*&&&&&&&&&&&&&&&&&&&&&&&&&&&&&&&&&&&&&&&&Xo* XX",
"oooXXXoXoXXXo oX&ooX @@%343%@&XXXXXXXXXXXXXXXXXXXXXXXXXXoXoooXXXoXoXXXo oX&ooX ++@2463@&XXXXXXXXXXXXXXXXXXXXXXXXXXXXXXXXXXXXXXXXoooXXX",
"@@@@@@@@@@@@@@@@@@@@@@@%3443%%++++++++++++++++++++++++++++++++++++++++++++++++++@@2463%@@+++++++++++++++++++++++++++++++++++++++@@@@@+",
"%%%%%%%%%%%%%%%%%%%%%%%%34443%%@@@@@@$$$$$$$%%%%%%$$$@@@@@@@@$$$$$$$$$$$$$$$@@@@@246743%%$@@@@$$%%%%22%%@@@@@++++@@@@@@@@@@@@@@@%%%%@+",
"443343%%33%%%%3333%%%%%3466433%%%%%%333333333344443333%%%%%%3444466876432%%%%%%%2467764332%%%333345566443333%%%%3333333343%%33%%4433@+",
"33333%%%%%%%%%%333%%%%34677643%%%%%%3333333333444433333%%%3344333467643%%%%%%%%%347887643%%%%%334466886443333%%%3433343343%3443%3333@@",
"33%9-*=-*-*-*-**-*=&-&-&-&-&==&=&-&-&-&==&=--*=;*-*=&-&-&-&-&=-%%35743%9-*=-*-*-*-**-*=&-&-&-&-&==-==-=*-*-&-&*-&==-==*-*====%3333%9-*",
"33qq9;;9-99-99--;-9--9--9-;-9--99--9-;-9--9;;-9;-;-9--9--9-;-9-*%2463%qq9;0ww99-99--;-9--9--9-;-9-9-9-9-9;;-9------9=9-;----&X3333qq9;",
"3%q--==-&--=--=&-&-o-*-o-*o&=*==*-o-*o&=*==*-&--&-&-o-*-o-*o==&o@%343%q====-&--=--=&-&-o-*-o-*o&=*-==----=-&==&-===-&-&-----&X%33%q--=",
"4%q9-&-=&-=-=-&&=&=o=o-=-o-o-*o-o-=-o-o-*o-X-&=-&=&=&=&-=-o-o-oX@%343%q=&&-=&-=-=-&&=&=o=o-=-o-o-*=*-=-=-&=o-=&-o*-=&-=-=---&X@%4%q9-&",
"3%99=&-&=*&-&-=&&=-=o-=o-&o&&*==-=o-&o&&*==&==*&=&=-&&-=o-&o=*oX@#243%9--&-&=**-&-=&&=-=o-=o-&o&&*-*-=-&-==&-o-==o=-X-o====-&X@%3%99=&",
"3%99-=-=&-==--=-=&-o-*-==o=o-=o-*-==o=o-=o-o=&*-&=&*&&*-==o=o-oX+#233%9w9=-=&-*=*-=-=&-o-*-==o=o-==-=-=--=-o==&-o*-o--=---=-&X+%3%99-=",
"3%9--&=-&-&-&-&&-&=o-o-o-o-o=*o=o-o-o-o=*o=o-&=&&-&=&*&-o-o-o=oX+#%32%99-&=-&-*-*-*&-&=o-o-o-o-o=*-*=-=&-&-o-o&-o*=-==&-===-&X+%3%9--&",
"3%9--==-&--=--=&=&-o=-=o=o=o-*o--=o=o=o-*o-o=&&-&=&*o=-=o-o=o-oX+#%22%9--==-&-*=*-*&=&-o=-=o=o=o-*-*-=-=-==&-=&*=o&-X-*-=-=-&X+%3%9--=",
"%%9--==-&--=--=-&-&=o-o&=o-=&===-o&=o-=&===o=-&-=&*=X&-o-o=o=&oX+#%22%9--==-&-*=*-*-&-&=o-o&=o-=&=*-*=-=-&=o-=&=o*-=&-=-=-=-&X+%%%9--=",
"%%9--&-=&-=-=-&=&=&-o=-==o*=&-===-==o*=&-==o==&&=&==&&=*=o=*=&oX+@%22%9--&-=&-*-*-*=&=&-o=-==o*=&-*-*-=&-==&-o-*=o=-X-o=&===&X+%%%9--&",
"4%9-=&-&=*&-&-===-&-==o==X-o=&o==o==X-o=&o=X=-&--&*=&&=&=-X-o=oX+@%22%9-=&-&=*&-*-*==-&-==o==X-o=&==*==--=-o==&=o*-o--=---==&X+%4%9-=&",
"3%99-=-=&-==--=-o=-&-o=-==-&--=-o=-==-&--=-o==&&-=-=&&=&-o=-=*oX+@%22%99-=-=&-*=*-*-o=-&-o=-==-&---*=&-&-&-o-o&-o*=-==&-&=*-&X+%3%99-=",
"%%9--&=-&-&-&-&-*-&&-o=&-&=&-&&-o=&-&=&-&&-*=-&--&*==&=&=-==&*oX+@%22%99-&=-&-&-*-&-*-&&-o=&-&=&-&=*-=-=-==*-=&==o&-X-*-=-*-&X+%%%9--&",
"%%9--&-&=*=-=-===--&==o&-&-&-=*-=o&-&-&-=*-*=-&*-&&==&=o&*X* XoX+@%22%99-&-&=*=-=-===--&==o&-&-&-=-*-&===*===&===&==**=-&;=-&X+%%%9--&",
"3%--&&&&&&&&&&&&&&&&&&&&&&&&&&o*&&&&&&&&&o*Xo* XXX  XXX o X o  X+@%22%-*&&&&&&&&&&&&&&&&&&&&&&&&&&&&&&&&&&&&&&&&&&&&&&&&&&&&&X+%3%--&&",
"3%@&XXXXXXXXXXXXXXXXXXXXXXXXXXoXXXXXXXXXXXXXXXXXoXoXXXo oX&ooX +@@%33%%&XXXXXXXXXXXXXXXXXXXXXXXXXXXXXXXXXXXXXXXXXXXXXXXXXXXXX++%3%@&XX",
"%%%%@@@@@@@@@@@@@@@@@@@@%%%%%%@@+++++$$$$$@@@@+++++++++++++++++@@%2443%@@+++++++++++++++++++++++++++++++++++++++++++++++++++++@%%%%%@+",
"%%%%%%%@@%%%%%%%%%%%%%%%%%%%%%%%%%%36678764%%%%%%%%%%%%%%%%%%%%%%246643%@@@@@@@@@@@@@@@@@@@@$$%%$$@@++@@@@@@@@@+++++@@%%%%%%%%%3%%%%@+",
"33%%%%%%%2233332222223345555433333%24467643222%%%%%%2223333222%%236776433433333333333333333333322%%%$%223222%$$@@@@@$$%%2233444433%%@+",
"33%%%33%33334433333333446666443344%%4%47433322%%%%%%22334433333334788744443333333333333333344443332%%3333333%%##@@@@##%%3333444433%%@+",
"-*-**-*=&-&==&=--*=;*-*=&-&-&-&-&=-33%463%%9-*=-*-*-*-**-*=&-=&-&-&-&==&=--*=;*-*=&-&-&-&-&=--43333%%9-*=-*-*-*-**-*=&-&-&-&-&==-*-**&",
"-99--;-9---9--9;;-9;-;-9--9--9-;-9-*3%343%qq9;;9-99-99--;-9--99--9-;-9--9;;-9;-;-9--9--9-;-9-*%2333%qq9;;9-99-99--;-9--9--9-;-9--99--&",
"=--=&-&-o-&=*==*-&--&-&-o-*-o-*o==&o+%343%q--==-&--=--=&-&-o-=*-o-*o&=*==*-&--&-&-o-*-o-*o==&o%2333%q--==-&--=--=&-&-o-*-o-*o&=*=--=&o",
"-=-&&=&=o=o-*o-X-&=-&=&=&=&-=-o-o-oX+@%43%q9-&-=&-=-=-&&=&=o=-o-=-o-o-*o-X-&=-&=&=&=&-=-o-o-oX+%333%q9-&-=&-=-=-&&=&=o=o-=-o-o-*-=-&&&",
"-&-=&&=-=o&&*==&==*&=&=-&&-=o-&o=*oX+@%43%99=&-&=*&-&-=&&=-=o=-=o-&o&&*==&==*&=&=-&&-=o-&o=*oX+@233%99=&-&=*&-&-=&&=-=o-=o-&o&&*-&-=&&",
"=--=-=&-o-o-*o-X-&=-&=&=&=&-=-o-o-oX+@%33%99-=-=&-==--=-=&-o--*-==o-o-*o-X-&=-&=&=&=&-=-o-o-oX+@233%99-=-=&-==--=-=&-o-*-==o=o-==--=-=",
"-&-&&-&=o-&&*==&==*&=&=-&&-=o-&o=*oX+@332%9--&=-&-&-&-&&-&=o-=o-o-&o&&*==&==*&=&=-&&-=o-&o=*oX+@233%9--&=-&-&-&-&&-&=o-o-o-o-o=*-&-&&-",
"=--=&=&-o=o-=o-o=&*-&=&*&&*-==o=o-oX+@332%9--==-&--=--=&=&-o=--=o=o=o-=o-o=&*-&=&*&&*-==o=o-oX+@%33%9--==-&--=--=&=&-o=-=o=o=o-*=--=&=",
"-&-&&-&=o-o=*o=o-&=&&-&=&*&-o-o-o=oX+@332%9--&=-&-&-&-&&-&=o-=-o&=o-o=*o=o-&=&&-&=&*&-o-o-o=oX+@%23%9--&=-&-&-&-&&-&=o-o-o-o-=&=-&-&&-",
"=--=&=&-o=o-*o-o=&&-&=&*o=-=o-o=o-oX+@332%9--==-&--=--=&=&-o===-==o=o-*o-o=&&-&=&*o=-=o-o=o-oX+@%23%9--==-&--=--=&=&-o=-=o=o==&-=--=&=",
"=--=-&-&=o=&===o=-&-=&*=X&-o-o=o=&oX+@332%9--==-&--=--=-&-&=o==o==o-=&===o=-&-=&*=X&-o-o=o=&oX+@%23%9--==-&--=--=-&-&=o-o&=o-o=&=--=-&",
"-=-&=&=&-o=&-==o==&&=&==&&=*=o=*=&oX+@332%9--&-=&-=-=-&=&=&-o-o=-=o*=&-==o==&&=&==&&=*=o=*=&oX+@%23%9--&-=&-=-=-&=&=&-o=-==o*--&-=-&=&",
"-&-===-&-=o=&o=X=-&--&*=&&=&=-X-o=oX+@333%9-=&-&=*&-&-===-&-=-o=&-X-o=&o=X=-&--&*=&&=&=-X-o=oX+@%23%9-=&-&=*&-&-===-&-==o==X--&--&-===",
"=--=-o=-&-&--=-o==&&-=-=&&=&-o=-=*oX+@333%99-=-=&-==--=-o=-&-o=-===-&--=-o==&&-=-=&&=&-o=-=*oX+@%23%99-=-=&-==--=-o=-&-o=-==-=-&=--=-o",
"-&-&-*-&&-&-&&-*=-&--&*==&=&=-==&*oX+@334%99-&=-&-&-&-&-*-&&-o=&-&&=&-&&-*=-&--&*==&=&=-==&*oX+@%23%99-&=-&-&-&-&-*-&&-o=&-&=-&&-&-&-*",
"-=-===--&=&-=*-*=-&*-&&==&=o&*X* XoX+@334%99-&-&=*=-=-===--&==o&-&&-&-=*-*=-&*-&&==&=o&*X* XoX+@%23%99-&-&=*=-=-===--&==o&-&---&-=-===",
"&&&&&&&&&&&&&o*Xo* XXX  XXX o X o  X+@333%-*&&&&&&&&&&&&&&&&&&&&&&&&&&&o*Xo* XXX  XXX o X o  X+@%23%**&&&&&&&&&&&&&&&&&&&&&&&**-&&&&&&",
"XXXXXXXXXXXXXXXXXXXXoXoXXXo oX&ooX ++@333%@&XXXXXXXXXXXXXXXXXXXXXXXXXXXXXXXXXXoXoXXXo oX&ooX X+@%23%%&XXXXXXXXXXXXXXXXXXXXXXXXXXXXXXXX",
"+++++++++++++++++++++++++++++++++++++@3344%@@++++++++++++++++++++++++++++++++++++++++++++++++++@%233%%@@@++++++++++++++++++++++@++++++",
"@@@@@@@@@@@@@@@@@@@@@@@@@@@@@@@@@@@@@@334433%@@@@$@@@@@@@@@@@@@@@@@@@@@@@@@@@@@@@@@@@@@@$$$$$$$$%23333%%@@@@@@@@@@++++++++++@@@@@@@@@@",
"%%32%%32%%%%%%22222222223332%%%222222234444443343333334433333344333%%%%333332%%%%%%%%%%%223322%%2244333%%%34333333332%%%%2333333%%32%%",
"%%332343222222333333333344432233333333444444444444444444444443443333%%33333322%%%%22%%%%223322%%22443333%%443333333322%%22333333%%3323",
"44444444444444444444444444444444444444444444444444444444444444444444444444444444444444444444444444444444444444444444444444444444444444",
"44444444444444444444444444444444444444444444444444444444444444444444444444444444444444444444444444444444444444444444444444444444444444"
};
